<svg width="27" height="28" viewBox="0 0 27 28" fill="none" xmlns="http://www.w3.org/2000/svg">
<path d="M23.7766 10.676L23.7604 10.6598C23.7591 10.6589 23.758 10.6577 23.7574 10.6563L13.6072 0.505859L3.45713 10.656C3.45596 10.6572 3.45531 10.6588 3.45413 10.6595L3.43738 10.6758C1.8853 12.2366 0.899455 14.2714 0.636575 16.4568C0.373696 18.6422 0.848865 20.8528 1.98654 22.7372C3.12422 24.6216 4.85912 26.0717 6.91546 26.8567C8.97178 27.6418 11.2315 27.717 13.3355 27.0702C13.5125 27.0161 13.7017 27.0161 13.8788 27.0702C15.9826 27.7167 18.2422 27.6415 20.2984 26.8563C22.3546 26.0711 24.0893 24.6212 25.2269 22.737C26.3645 20.8527 26.8398 18.6422 26.577 16.4569C26.3142 14.2716 25.3285 12.2368 23.7766 10.676ZM7.06636 17.3694C7.01695 17.4188 6.97777 17.4775 6.95104 17.542C6.92431 17.6065 6.91054 17.6757 6.91056 17.7455C6.92862 19.537 7.4349 21.2895 8.37492 22.8147C8.39627 22.8493 8.40614 22.8898 8.40311 22.9303C8.40008 22.9708 8.38432 23.0093 8.35805 23.0404C8.3318 23.0714 8.2964 23.0933 8.25693 23.103C8.21745 23.1127 8.17592 23.1097 8.13828 23.0944C7.4316 22.7971 6.78962 22.365 6.24823 21.8223C5.13875 20.7126 4.51502 19.2079 4.51401 17.6387C4.51301 16.0695 5.13481 14.564 6.24287 13.453L13.6072 6.08937L20.9711 13.453C22.0794 14.5639 22.7014 16.0694 22.7004 17.6387C22.6994 19.2079 22.0756 20.7126 20.966 21.8223C20.4246 22.365 19.7827 22.7971 19.0761 23.0944C19.0384 23.1097 18.9968 23.1127 18.9574 23.103C18.918 23.0933 18.8826 23.0713 18.8562 23.0404C18.83 23.0093 18.8142 22.9708 18.8111 22.9301C18.8081 22.8897 18.818 22.8492 18.8393 22.8146C19.7795 21.2895 20.2861 19.537 20.3044 17.7455C20.3044 17.6757 20.2905 17.6065 20.2637 17.5419C20.2368 17.4773 20.1975 17.4187 20.148 17.3693L16.6648 13.6747C16.63 13.6457 16.5864 13.6298 16.5412 13.6298C16.4961 13.6298 16.4523 13.6457 16.4177 13.6747C16.383 13.7035 16.3597 13.7437 16.3515 13.7882C16.3434 13.8326 16.3511 13.8783 16.3734 13.9177C17.7262 16.3657 16.5629 19.8821 14.623 21.8223L14.6128 21.8325C14.345 22.0974 13.9835 22.2459 13.6069 22.2458C13.2303 22.2456 12.8689 22.0969 12.6013 21.8319L12.5919 21.8223C10.6513 19.8821 9.48857 16.3661 10.8416 13.9182C10.8638 13.8789 10.8716 13.8331 10.8635 13.7887C10.8554 13.7443 10.832 13.704 10.7973 13.6752C10.7627 13.6462 10.7189 13.6304 10.6738 13.6304C10.6286 13.6304 10.5849 13.6462 10.5503 13.6752L7.06636 17.3694Z" fill="#121212"/>
</svg>
