<svg width="121" height="21" viewBox="0 0 121 21" fill="none" xmlns="http://www.w3.org/2000/svg">
<path d="M17.5897 5.84265C17.2609 5.66745 16.8266 5.46921 16.287 5.24791C15.7473 5.02661 15.136 4.81914 14.453 4.6255C13.77 4.42264 13.028 4.25667 12.227 4.12757C11.4259 3.98926 10.6038 3.92011 9.76059 3.92011C9.08603 3.92011 8.50843 3.94316 8.02781 3.98926C7.55561 4.03537 7.15509 4.0953 6.82625 4.16907C6.50583 4.24284 6.24865 4.33043 6.05472 4.43186C5.86921 4.52407 5.72587 4.62089 5.62468 4.72232C5.5235 4.82375 5.45604 4.92518 5.42231 5.02661C5.39702 5.12804 5.38437 5.22024 5.38437 5.30323C5.38437 5.57986 5.51085 5.82421 5.76381 6.03629C6.01677 6.23915 6.36248 6.42356 6.80095 6.58954C7.23941 6.74629 7.74955 6.89844 8.33136 7.04597C8.91317 7.18428 9.52871 7.33182 10.178 7.48857C10.8357 7.6361 11.5102 7.80208 12.2017 7.9865C12.9015 8.16169 13.5761 8.36916 14.2253 8.6089C14.883 8.84864 15.5028 9.12988 16.0846 9.45261C16.6664 9.76612 17.1766 10.135 17.615 10.5591C18.0535 10.9833 18.3992 11.472 18.6522 12.0252C18.9051 12.5785 19.0316 13.2101 19.0316 13.9201C19.0316 14.833 18.884 15.6167 18.5889 16.2714C18.2938 16.9261 17.8975 17.4793 17.4 17.9312C16.9109 18.383 16.3418 18.7472 15.6925 19.0238C15.0433 19.2912 14.3603 19.4987 13.6435 19.6462C12.9352 19.7938 12.2143 19.8906 11.4807 19.9367C10.7556 19.9828 10.0641 20.0059 9.40644 20.0059C7.68631 20.0059 6.09266 19.8491 4.62549 19.5356C3.16675 19.2313 1.87665 18.8486 0.75519 18.3876V13.8509C1.91038 14.5517 3.22577 15.1004 4.70138 15.4969C6.18541 15.8934 7.77063 16.0916 9.45704 16.0916C10.452 16.0916 11.2615 16.0363 11.8855 15.9256C12.5179 15.8058 13.0111 15.6582 13.3653 15.483C13.7194 15.2986 13.9597 15.1004 14.0862 14.8883C14.2127 14.6762 14.2759 14.4734 14.2759 14.2797C14.2759 13.9754 14.1495 13.7126 13.8965 13.4913C13.6435 13.2608 13.2978 13.0626 12.8594 12.8966C12.4209 12.7214 11.9108 12.5646 11.3289 12.4263C10.7471 12.2788 10.1274 12.1359 9.46968 11.9976C8.82042 11.85 8.15007 11.6933 7.45865 11.5273C6.76722 11.3613 6.09266 11.1677 5.43496 10.9464C4.7857 10.7159 4.17016 10.4531 3.58835 10.158C3.00654 9.85372 2.4964 9.49871 2.05794 9.093C1.61947 8.67806 1.27376 8.20319 1.0208 7.66838C0.767838 7.12435 0.641357 6.49733 0.641357 5.78733C0.641357 4.94823 0.77627 4.22439 1.04609 3.61582C1.31592 3.00724 1.6785 2.49088 2.13383 2.06672C2.59759 1.63334 3.1288 1.28295 3.72748 1.01554C4.33458 0.748137 4.9712 0.540668 5.63733 0.393135C6.30346 0.245601 6.97802 0.144172 7.66102 0.0888469C8.34401 0.0335219 8.99327 0.00585938 9.60881 0.00585938C10.2834 0.00585938 10.9748 0.0427427 11.6831 0.116509C12.3998 0.190276 13.1039 0.296316 13.7953 0.434628C14.4867 0.56372 15.1529 0.715864 15.7937 0.89106C16.443 1.06626 17.0416 1.25067 17.5897 1.44431V5.84265Z" fill="black"/>
<path d="M40.1159 19.4941V11.5688H28.1761V19.4941H23.4837V0.489953H28.1761V7.40558H40.1159V0.489953H44.8083V19.4941H40.1159Z" fill="black"/>
<path d="M72.7351 10.0059C72.7351 11.6379 72.4611 13.081 71.913 14.335C71.3649 15.5799 70.5808 16.6218 69.5605 17.4609C68.5402 18.3 67.3007 18.9362 65.842 19.3696C64.3917 19.7938 62.7601 20.0059 60.9472 20.0059C59.1343 20.0059 57.4943 19.7938 56.0271 19.3696C54.5684 18.9362 53.3246 18.3 52.2959 17.4609C51.2672 16.6218 50.4746 15.5799 49.9181 14.335C49.3616 13.081 49.0833 11.6379 49.0833 10.0059C49.0833 8.37377 49.3616 6.93532 49.9181 5.69051C50.4746 4.43647 51.2672 3.38991 52.2959 2.55081C53.3246 1.71171 54.5684 1.08009 56.0271 0.655929C57.4943 0.222549 59.1343 0.00585938 60.9472 0.00585938C62.7601 0.00585938 64.3917 0.222549 65.842 0.655929C67.3007 1.08009 68.5402 1.71171 69.5605 2.55081C70.5808 3.38991 71.3649 4.43647 71.913 5.69051C72.4611 6.93532 72.7351 8.37377 72.7351 10.0059ZM67.9921 10.0059C67.9921 9.29585 67.8867 8.59046 67.6759 7.88968C67.4736 7.17967 67.1068 6.54343 66.5755 5.98096C66.0528 5.41849 65.336 4.96206 64.4254 4.61167C63.5147 4.26128 62.3553 4.08608 60.9472 4.08608C60.0028 4.08608 59.1722 4.16907 58.4555 4.33504C57.7388 4.4918 57.119 4.7131 56.5963 4.99894C56.0735 5.28479 55.635 5.62135 55.2809 6.00863C54.9267 6.38668 54.6442 6.79701 54.4334 7.23961C54.2226 7.67299 54.0709 8.12942 53.9781 8.6089C53.8938 9.07917 53.8516 9.54482 53.8516 10.0059C53.8516 10.4761 53.8938 10.951 53.9781 11.4305C54.0709 11.91 54.2226 12.371 54.4334 12.8136C54.6442 13.247 54.9267 13.6527 55.2809 14.0308C55.635 14.4088 56.0735 14.7408 56.5963 15.0266C57.119 15.3032 57.7388 15.5245 58.4555 15.6905C59.1722 15.8473 60.0028 15.9256 60.9472 15.9256C62.3553 15.9256 63.5147 15.7504 64.4254 15.4001C65.336 15.0497 66.0528 14.5932 66.5755 14.0308C67.1068 13.4683 67.4736 12.8367 67.6759 12.1359C67.8867 11.4259 67.9921 10.7159 67.9921 10.0059Z" fill="black"/>
<path d="M96.5387 6.97681C96.5387 7.92656 96.4123 8.80254 96.1593 9.60475C95.9063 10.3977 95.4974 11.0847 94.9324 11.6656C94.3759 12.2373 93.6508 12.6845 92.757 13.0072C91.8632 13.33 90.7755 13.4913 89.4938 13.4913H81.7026V19.4941H77.0102V0.489953H89.4938C90.7755 0.489953 91.8632 0.651318 92.757 0.974047C93.6508 1.28756 94.3759 1.73477 94.9324 2.31568C95.4974 2.88737 95.9063 3.56971 96.1593 4.36271C96.4123 5.1557 96.5387 6.02707 96.5387 6.97681ZM91.7957 7.0598C91.7957 6.6172 91.7367 6.23915 91.6187 5.92564C91.509 5.60291 91.3235 5.34012 91.0621 5.13726C90.8007 4.9344 90.4593 4.78686 90.0377 4.69466C89.616 4.59323 89.0975 4.54251 88.4819 4.54251H81.7026V9.43878H88.4819C89.0975 9.43878 89.616 9.40189 90.0377 9.32813C90.4593 9.24514 90.8007 9.11144 91.0621 8.92702C91.3235 8.73338 91.509 8.48442 91.6187 8.18013C91.7367 7.87585 91.7957 7.5024 91.7957 7.0598Z" fill="black"/>
<path d="M105.127 19.4941H100.434V0.489953H112.197C113.462 0.489953 114.533 0.632876 115.41 0.918722C116.295 1.20457 117.012 1.61029 117.56 2.13587C118.116 2.66146 118.517 3.2977 118.761 4.04459C119.014 4.78225 119.141 5.60752 119.141 6.52038C119.141 7.3226 119.035 8.02338 118.825 8.62273C118.622 9.22209 118.344 9.73845 117.99 10.1718C117.644 10.596 117.239 10.9556 116.776 11.2507C116.312 11.5457 115.823 11.7901 115.308 11.9837L121 19.4941H115.511L110.249 12.4955H105.127V19.4941ZM114.398 6.49272C114.398 6.12389 114.351 5.81038 114.259 5.55219C114.174 5.29401 114.023 5.08654 113.803 4.92979C113.584 4.76381 113.289 4.64394 112.918 4.57017C112.555 4.49641 112.1 4.45952 111.552 4.45952H105.127V8.52592H111.552C112.1 8.52592 112.555 8.48903 112.918 8.41527C113.289 8.3415 113.584 8.22624 113.803 8.06948C114.023 7.90351 114.174 7.69143 114.259 7.43325C114.351 7.17506 114.398 6.86155 114.398 6.49272Z" fill="black"/>
</svg>
